<mxfile host="Electron" agent="Mozilla/5.0 (Windows NT 10.0; Win64; x64) AppleWebKit/537.36 (KHTML, like Gecko) draw.io/24.7.8 Chrome/128.0.6613.36 Electron/32.0.1 Safari/537.36" version="24.7.8">
  <diagram name="Page-1" id="3e8102d1-ef87-2e61-34e1-82d9a586fe2e">
    <mxGraphModel dx="757" dy="2335" grid="0" gridSize="10" guides="1" tooltips="1" connect="1" arrows="1" fold="1" page="1" pageScale="1" pageWidth="2336" pageHeight="1654" background="none" math="0" shadow="0">
      <root>
        <mxCell id="0" />
        <mxCell id="1" parent="0" />
        <mxCell id="70666756c84bb93c-1" value="Registries" style="ellipse;whiteSpace=wrap;html=1;rounded=0;shadow=0;comic=0;strokeWidth=1;fontFamily=Verdana;fontSize=14;strokeColor=none;fillColor=#0069D1;gradientColor=#142CA3;" parent="1" vertex="1">
          <mxGeometry x="26" y="-1602" width="500" height="500" as="geometry" />
        </mxCell>
        <mxCell id="70666756c84bb93c-2" value="&lt;div&gt;&lt;font face=&quot;Helvetica&quot;&gt;Self Service&lt;/font&gt;&lt;/div&gt;&lt;div&gt;&lt;font face=&quot;Helvetica&quot;&gt;Capabilities&lt;br&gt;&lt;/font&gt;&lt;/div&gt;" style="ellipse;whiteSpace=wrap;html=1;rounded=0;shadow=0;comic=0;strokeWidth=1;fontFamily=Verdana;fontSize=22;strokeColor=none;fillColor=#ffffff;fontColor=#0069D1;fontStyle=1" parent="1" vertex="1">
          <mxGeometry x="146" y="-1472" width="260" height="260" as="geometry" />
        </mxCell>
        <mxCell id="pW_zvi2s4AdtfY8qEVKi-22" value="&lt;div&gt;&lt;font style=&quot;font-size: 14px;&quot; color=&quot;#fafafa&quot;&gt;App&lt;/font&gt;&lt;/div&gt;&lt;div&gt;&lt;font style=&quot;font-size: 14px;&quot; color=&quot;#fafafa&quot;&gt;Blueprints&lt;/font&gt;&lt;/div&gt;" style="sketch=0;pointerEvents=1;shadow=0;dashed=0;html=1;aspect=fixed;labelPosition=center;verticalLabelPosition=bottom;verticalAlign=top;align=center;outlineConnect=0;shape=mxgraph.vvd.blueprint;fillColor=#DAE8FC;strokeColor=#6c8ebf;" parent="1" vertex="1">
          <mxGeometry x="79" y="-1327.83" width="50" height="47.5" as="geometry" />
        </mxCell>
        <mxCell id="pW_zvi2s4AdtfY8qEVKi-27" value="&lt;div style=&quot;font-size: 14px;&quot;&gt;&lt;font face=&quot;Helvetica&quot; color=&quot;#ffffff&quot; style=&quot;font-size: 14px;&quot;&gt;Log&amp;nbsp;&lt;/font&gt;&lt;/div&gt;&lt;div style=&quot;font-size: 14px;&quot;&gt;&lt;font face=&quot;Helvetica&quot; color=&quot;#ffffff&quot; style=&quot;font-size: 14px;&quot;&gt;Aggregation&lt;/font&gt;&lt;/div&gt;" style="sketch=0;outlineConnect=0;fontColor=#232F3E;gradientColor=none;fillColor=default;strokeColor=none;dashed=0;verticalLabelPosition=bottom;verticalAlign=top;align=center;html=1;fontSize=12;fontStyle=0;aspect=fixed;pointerEvents=1;shape=mxgraph.aws4.flow_logs;" parent="1" vertex="1">
          <mxGeometry x="244" y="-1210" width="60" height="60" as="geometry" />
        </mxCell>
        <mxCell id="pW_zvi2s4AdtfY8qEVKi-41" value="" style="sketch=0;pointerEvents=1;shadow=0;dashed=0;html=1;strokeColor=none;fillColor=#434445;aspect=fixed;labelPosition=center;verticalLabelPosition=bottom;verticalAlign=top;align=center;outlineConnect=0;shape=mxgraph.vvd.service_provider_cloud_environment;" parent="1" vertex="1">
          <mxGeometry x="251" y="-1420" width="50" height="44" as="geometry" />
        </mxCell>
        <mxCell id="pW_zvi2s4AdtfY8qEVKi-51" value="&lt;div style=&quot;font-size: 14px;&quot;&gt;&lt;font face=&quot;Helvetica&quot; color=&quot;#ffffff&quot; style=&quot;font-size: 14px;&quot;&gt;Expose Public&amp;nbsp;&lt;/font&gt;&lt;/div&gt;&lt;div style=&quot;font-size: 14px;&quot;&gt;&lt;font face=&quot;Helvetica&quot; color=&quot;#ffffff&quot; style=&quot;font-size: 14px;&quot;&gt;Endpoints&lt;/font&gt;&lt;/div&gt;&lt;div style=&quot;font-size: 14px;&quot;&gt;&lt;font face=&quot;kt6iHZs22FHCh_HbC-xr&quot; color=&quot;#ffffff&quot; style=&quot;font-size: 14px;&quot;&gt;&lt;br&gt;&lt;/font&gt;&lt;/div&gt;" style="verticalLabelPosition=bottom;html=1;verticalAlign=top;align=center;shape=mxgraph.azure.website_generic;pointerEvents=1;fillColor=#dae8fc;strokeColor=#6c8ebf;" parent="1" vertex="1">
          <mxGeometry x="141" y="-1232.5" width="50" height="42.5" as="geometry" />
        </mxCell>
        <mxCell id="pW_zvi2s4AdtfY8qEVKi-54" value="" style="group" parent="1" vertex="1" connectable="0">
          <mxGeometry x="124" y="-1557" width="84" height="98" as="geometry" />
        </mxCell>
        <mxCell id="pW_zvi2s4AdtfY8qEVKi-46" value="&lt;font face=&quot;Helvetica&quot; style=&quot;font-size: 14px;&quot; color=&quot;#ffffff&quot;&gt;Environments&lt;/font&gt;" style="text;strokeColor=none;align=center;fillColor=none;html=1;verticalAlign=middle;whiteSpace=wrap;rounded=0;" parent="pW_zvi2s4AdtfY8qEVKi-54" vertex="1">
          <mxGeometry x="6" y="70" width="60" height="30" as="geometry" />
        </mxCell>
        <mxCell id="pW_zvi2s4AdtfY8qEVKi-53" value="" style="group" parent="pW_zvi2s4AdtfY8qEVKi-54" vertex="1" connectable="0">
          <mxGeometry width="84" height="74" as="geometry" />
        </mxCell>
        <mxCell id="pW_zvi2s4AdtfY8qEVKi-38" value="" style="image;aspect=fixed;html=1;points=[];align=center;fontSize=12;image=img/lib/azure2/integration/Integration_Service_Environments.svg;" parent="pW_zvi2s4AdtfY8qEVKi-53" vertex="1">
          <mxGeometry x="28" width="56" height="56" as="geometry" />
        </mxCell>
        <mxCell id="pW_zvi2s4AdtfY8qEVKi-39" value="" style="image;aspect=fixed;html=1;points=[];align=center;fontSize=12;image=img/lib/azure2/integration/Integration_Service_Environments.svg;" parent="pW_zvi2s4AdtfY8qEVKi-53" vertex="1">
          <mxGeometry y="6" width="68" height="68" as="geometry" />
        </mxCell>
        <mxCell id="pW_zvi2s4AdtfY8qEVKi-74" value="&lt;div&gt;&lt;font face=&quot;Verdana&quot; style=&quot;font-size: 14px;&quot; color=&quot;#ffffff&quot;&gt;CI/CD&lt;/font&gt;&lt;/div&gt;&lt;div&gt;&lt;font face=&quot;Verdana&quot; style=&quot;font-size: 14px;&quot; color=&quot;#ffffff&quot;&gt;Pipelines&lt;/font&gt;&lt;font face=&quot;-NoaQBelOJ-VFzgX4Aly&quot; style=&quot;font-size: 14px;&quot; color=&quot;#ffffff&quot;&gt;&lt;br&gt;&lt;/font&gt;&lt;/div&gt;&lt;div&gt;&lt;font face=&quot;WKoW9NbOOr-qXo-OocXv&quot; style=&quot;font-size: 14px;&quot; color=&quot;#ffffff&quot;&gt;&lt;br&gt;&lt;/font&gt;&lt;/div&gt;" style="sketch=0;outlineConnect=0;fontColor=#232F3E;gradientColor=none;fillColor=#FFFFFF;strokeColor=none;dashed=0;verticalLabelPosition=bottom;verticalAlign=top;align=center;html=1;fontSize=12;fontStyle=0;aspect=fixed;pointerEvents=1;shape=mxgraph.aws4.iot_analytics_pipeline;" parent="1" vertex="1">
          <mxGeometry x="237" y="-1572" width="78" height="42" as="geometry" />
        </mxCell>
        <mxCell id="pW_zvi2s4AdtfY8qEVKi-80" value="&lt;div&gt;&lt;font face=&quot;Helvetica&quot; style=&quot;font-size: 14px;&quot;&gt;&lt;font color=&quot;#ffffff&quot;&gt;Multi AZ&amp;nbsp;&lt;/font&gt;&lt;/font&gt;&lt;/div&gt;&lt;div&gt;&lt;font face=&quot;0aHlL52accuO8FEGTic8&quot; style=&quot;font-size: 14px;&quot;&gt;&lt;font color=&quot;#ffffff&quot;&gt;Deployment&lt;/font&gt;&lt;/font&gt;&lt;/div&gt;" style="sketch=0;outlineConnect=0;dashed=0;verticalLabelPosition=bottom;verticalAlign=top;align=center;html=1;fontSize=12;fontStyle=0;aspect=fixed;pointerEvents=1;shape=mxgraph.aws4.rds_multi_az_db_cluster;" parent="1" vertex="1">
          <mxGeometry x="418" y="-1337.96" width="67.75" height="67.75" as="geometry" />
        </mxCell>
        <mxCell id="pW_zvi2s4AdtfY8qEVKi-82" value="&lt;font face=&quot;Helvetica&quot; style=&quot;font-size: 14px;&quot; color=&quot;#ffffff&quot;&gt;Secrets&lt;/font&gt;" style="sketch=0;points=[[0,0,0],[0.25,0,0],[0.5,0,0],[0.75,0,0],[1,0,0],[0,1,0],[0.25,1,0],[0.5,1,0],[0.75,1,0],[1,1,0],[0,0.25,0],[0,0.5,0],[0,0.75,0],[1,0.25,0],[1,0.5,0],[1,0.75,0]];outlineConnect=0;dashed=0;verticalLabelPosition=bottom;verticalAlign=top;align=center;html=1;fontSize=12;fontStyle=0;aspect=fixed;shape=mxgraph.aws4.resourceIcon;resIcon=mxgraph.aws4.site_to_site_vpn;fillColor=none;strokeColor=#FFFFFF;" parent="1" vertex="1">
          <mxGeometry x="348" y="-1557" width="78" height="78" as="geometry" />
        </mxCell>
        <mxCell id="pW_zvi2s4AdtfY8qEVKi-85" value="&lt;div style=&quot;font-size: 14px;&quot;&gt;&lt;font color=&quot;#ffffff&quot; style=&quot;font-size: 14px;&quot;&gt;Metrics&amp;nbsp;&lt;/font&gt;&lt;/div&gt;&lt;div style=&quot;font-size: 14px;&quot;&gt;&lt;font color=&quot;#ffffff&quot; style=&quot;font-size: 14px;&quot;&gt;Aggregation&lt;/font&gt;&lt;/div&gt;" style="sketch=0;outlineConnect=0;fontColor=#232F3E;gradientColor=none;fillColor=#FFFFFF;strokeColor=none;dashed=0;verticalLabelPosition=bottom;verticalAlign=top;align=center;html=1;fontSize=12;fontStyle=0;aspect=fixed;pointerEvents=1;shape=mxgraph.aws4.metrics;" parent="1" vertex="1">
          <mxGeometry x="351" y="-1239" width="58.23" height="53" as="geometry" />
        </mxCell>
        <mxCell id="pW_zvi2s4AdtfY8qEVKi-93" value="&lt;div&gt;&lt;font face=&quot;Helvetica&quot; color=&quot;#ffffff&quot; style=&quot;font-size: 14px;&quot;&gt;Infrastructure&amp;nbsp;&lt;/font&gt;&lt;/div&gt;&lt;div&gt;&lt;font face=&quot;4wv71k4kFXV3Z3sOQnss&quot; color=&quot;#ffffff&quot; style=&quot;font-size: 14px;&quot;&gt;Integration&lt;/font&gt;&lt;/div&gt;" style="sketch=0;outlineConnect=0;dashed=0;verticalLabelPosition=bottom;verticalAlign=top;align=center;html=1;fontSize=12;fontStyle=0;aspect=fixed;pointerEvents=1;shape=mxgraph.aws4.eventbridge_pipes;" parent="1" vertex="1">
          <mxGeometry x="431" y="-1448" width="58" height="58" as="geometry" />
        </mxCell>
        <mxCell id="pW_zvi2s4AdtfY8qEVKi-114" value="" style="group" parent="1" vertex="1" connectable="0">
          <mxGeometry x="533" y="-1607" width="484" height="605.8499999999999" as="geometry" />
        </mxCell>
        <mxCell id="pW_zvi2s4AdtfY8qEVKi-2" value="" style="ellipse;whiteSpace=wrap;html=1;rounded=0;shadow=0;comic=0;strokeWidth=1;fontFamily=Verdana;fontSize=14;strokeColor=none;fillColor=#0069D1;gradientColor=#142ca3;" parent="pW_zvi2s4AdtfY8qEVKi-114" vertex="1">
          <mxGeometry width="484.00000000000017" height="502.5" as="geometry" />
        </mxCell>
        <mxCell id="pW_zvi2s4AdtfY8qEVKi-3" value="&lt;div&gt;&lt;font face=&quot;Helvetica&quot;&gt;Multi-Tentant&lt;/font&gt;&lt;/div&gt;&lt;div&gt;&lt;font face=&quot;Helvetica&quot;&gt;Kubernetes&lt;br&gt;&lt;/font&gt;&lt;/div&gt;" style="ellipse;whiteSpace=wrap;html=1;rounded=0;shadow=0;comic=0;strokeWidth=1;fontFamily=Verdana;fontSize=22;strokeColor=none;fillColor=#ffffff;fontColor=#0069D1;fontStyle=1" parent="pW_zvi2s4AdtfY8qEVKi-114" vertex="1">
          <mxGeometry x="117.28834355828225" y="125.12845849802372" width="257.34151329243366" height="258.201581027668" as="geometry" />
        </mxCell>
        <mxCell id="pW_zvi2s4AdtfY8qEVKi-10" value="&lt;div&gt;Policy&lt;/div&gt;&lt;div&gt;&lt;br&gt;&lt;/div&gt;" style="shadow=0;dashed=0;html=1;strokeColor=none;fillColor=#ffffff;labelPosition=center;verticalLabelPosition=bottom;verticalAlign=top;shape=mxgraph.office.security.token_service;rounded=0;comic=0;fontFamily=Helvetica;fontSize=14;fontColor=#FFFFFF;" parent="pW_zvi2s4AdtfY8qEVKi-114" vertex="1">
          <mxGeometry x="324.33008179959114" y="361.99529644268773" width="59.38650306748468" height="55.612648221343875" as="geometry" />
        </mxCell>
        <mxCell id="pW_zvi2s4AdtfY8qEVKi-13" value="&lt;div&gt;&lt;font face=&quot;Helvetica&quot;&gt;Safe&lt;/font&gt;&lt;/div&gt;&lt;div&gt;&lt;font face=&quot;Helvetica&quot;&gt;Segregation&lt;br&gt;&lt;/font&gt;&lt;/div&gt;" style="shadow=0;dashed=0;html=1;strokeColor=none;shape=mxgraph.mscae.general.continuous_cycle;fillColor=#ffffff;rounded=0;comic=0;fontFamily=Verdana;fontSize=14;fontColor=#FFFFFF;verticalAlign=top;labelPosition=center;verticalLabelPosition=bottom;align=center;" parent="pW_zvi2s4AdtfY8qEVKi-114" vertex="1">
          <mxGeometry x="103.99519427402865" y="55.00114624505929" width="47.50920245398775" height="49.654150197628454" as="geometry" />
        </mxCell>
        <mxCell id="pW_zvi2s4AdtfY8qEVKi-42" value="" style="image;aspect=fixed;html=1;points=[];align=center;fontSize=12;image=img/lib/azure2/integration/Integration_Environments.svg;" parent="pW_zvi2s4AdtfY8qEVKi-114" vertex="1">
          <mxGeometry x="218.51" y="170.5" width="51.08" height="54.07" as="geometry" />
        </mxCell>
        <mxCell id="pW_zvi2s4AdtfY8qEVKi-100" value="&lt;div&gt;&lt;font face=&quot;Verdana&quot; color=&quot;#ffffff&quot; style=&quot;font-size: 14px;&quot;&gt;Security &amp;amp; &lt;br&gt;&lt;/font&gt;&lt;/div&gt;&lt;div&gt;&lt;font face=&quot;Verdana&quot; color=&quot;#ffffff&quot; style=&quot;font-size: 14px;&quot;&gt;Compliance&lt;br&gt;&lt;/font&gt;&lt;/div&gt;" style="sketch=0;points=[[0,0,0],[0.25,0,0],[0.5,0,0],[0.75,0,0],[1,0,0],[0,1,0],[0.25,1,0],[0.5,1,0],[0.75,1,0],[1,1,0],[0,0.25,0],[0,0.5,0],[0,0.75,0],[1,0.25,0],[1,0.5,0],[1,0.75,0]];outlineConnect=0;fontColor=#232F3E;fillColor=none;strokeColor=#ffffff;dashed=0;verticalLabelPosition=bottom;verticalAlign=top;align=center;html=1;fontSize=12;fontStyle=0;aspect=fixed;shape=mxgraph.aws4.resourceIcon;resIcon=mxgraph.aws4.security_identity_and_compliance;" parent="pW_zvi2s4AdtfY8qEVKi-114" vertex="1">
          <mxGeometry x="386.9997341513294" y="205.86388339920947" width="76.8741418764302" height="76.8741418764302" as="geometry" />
        </mxCell>
        <mxCell id="pW_zvi2s4AdtfY8qEVKi-101" value="&lt;font color=&quot;#ffffff&quot; style=&quot;font-size: 14px;&quot; face=&quot;Verdana&quot;&gt;SSO &amp;amp; AD&lt;br&gt;&lt;/font&gt;" style="shape=mxgraph.signs.travel.immigration;html=1;pointerEvents=1;fillColor=#FFFFFF;strokeColor=none;verticalLabelPosition=bottom;verticalAlign=top;align=center;" parent="pW_zvi2s4AdtfY8qEVKi-114" vertex="1">
          <mxGeometry x="39.99824130879347" y="211.77495059288538" width="51.46830265848672" height="65.04693675889328" as="geometry" />
        </mxCell>
        <mxCell id="pW_zvi2s4AdtfY8qEVKi-108" value="&lt;font face=&quot;Helvetica&quot; color=&quot;#ffffff&quot; style=&quot;font-size: 14px;&quot;&gt;Autoscaling&lt;/font&gt;" style="sketch=0;outlineConnect=0;fontColor=#232F3E;gradientColor=none;fillColor=#FFFFFF;strokeColor=none;dashed=0;verticalLabelPosition=bottom;verticalAlign=top;align=center;html=1;fontSize=12;fontStyle=0;aspect=fixed;pointerEvents=1;shape=mxgraph.aws4.auto_scaling2;" parent="pW_zvi2s4AdtfY8qEVKi-114" vertex="1">
          <mxGeometry x="324.33492842535793" y="55.15249011857708" width="69.97518042598134" height="69.97518042598134" as="geometry" />
        </mxCell>
        <mxCell id="pW_zvi2s4AdtfY8qEVKi-113" value="" style="group;fontFamily=Helvetica;" parent="pW_zvi2s4AdtfY8qEVKi-114" vertex="1" connectable="0">
          <mxGeometry x="58.963558282208616" y="364.97545454545457" width="92.54396728016363" height="49.654150197628454" as="geometry" />
        </mxCell>
        <mxCell id="pW_zvi2s4AdtfY8qEVKi-111" value="&lt;div style=&quot;font-size: 13px;&quot; align=&quot;left&quot;&gt;&lt;font color=&quot;#ffffff&quot; face=&quot;Verdana&quot; style=&quot;font-size: 14px;&quot;&gt;Ingress&lt;/font&gt;&lt;/div&gt;" style="sketch=0;pointerEvents=1;shadow=0;dashed=0;html=1;aspect=fixed;labelPosition=center;verticalLabelPosition=bottom;verticalAlign=top;align=left;outlineConnect=0;shape=mxgraph.vvd.logical_firewall;strokeColor=#FFFFFF;" parent="pW_zvi2s4AdtfY8qEVKi-113" vertex="1">
          <mxGeometry x="44.53987730061351" width="47.799947192395706" height="49.278296074634746" as="geometry" />
        </mxCell>
        <mxCell id="pW_zvi2s4AdtfY8qEVKi-112" value="" style="shape=flexArrow;endArrow=classic;html=1;rounded=0;strokeColor=#FFFFFF;width=13.333333333333334;endSize=5.65;" parent="pW_zvi2s4AdtfY8qEVKi-113" edge="1">
          <mxGeometry width="50" height="50" relative="1" as="geometry">
            <mxPoint y="24.827075098814227" as="sourcePoint" />
            <mxPoint x="44.53987730061351" y="24.40998023715413" as="targetPoint" />
          </mxGeometry>
        </mxCell>
        <mxCell id="pW_zvi2s4AdtfY8qEVKi-127" value="" style="editableCssRules=.*;html=1;shape=image;verticalLabelPosition=bottom;labelBackgroundColor=#ffffff;verticalAlign=top;aspect=fixed;imageAspect=0;image=data:image/svg+xml,PHN2ZyB4bWxucz0iaHR0cDovL3d3dy53My5vcmcvMjAwMC9zdmciIHhtbG5zOnY9Imh0dHBzOi8vdmVjdGEuaW8vbmFubyIgd2lkdGg9IjQwMi4zNDMyMDA2ODM1OTM3NSIgaGVpZ2h0PSI0MTYuMDAyNTMyOTU4OTg0NCIgdmlld0JveD0iMCAwLjAwMDQ5OTk2Mzc2MDM3NTk3NjYgNDAyLjM0MzIwMDY4MzU5Mzc1IDQxNi4wMDI1MzI5NTg5ODQ0Ij4mI3hhOwk8c3R5bGUgdHlwZT0idGV4dC9jc3MiPiYjeGE7CS5zdDB7ZmlsbDojNDI4NWY0O30mI3hhOwkuc3Qxe2ZpbGw6IzY2OWRmNjt9JiN4YTsJLnN0MntmaWxsOiNhZWNiZmE7fSYjeGE7CTwvc3R5bGU+JiN4YTsJPHBhdGggY2xhc3M9InN0MiIgZD0iTTM2Ni4xNyA5Mi4wMDNjLTE5LjA1IDAtMzYgMTYuODItMzYgMzUuNzYgMCAxMi42MiA4LjQ2IDI1LjI0IDE5LjA1IDMxLjU1djE0Ny4zbC0xMTAuMDUgNjUuMjEgMTYuOTMgMjcuMzUgMTE4LjUxLTY5LjQyYzQuMjQtMi4xIDguNDctOC40MSA4LjQ3LTE0Ljczdi0xNTUuNjdjMTIuNzEtNi4zNSAxOS4wOS0xOC45MyAxOS4wOS0zMS41NSAyLjA4LTE4Ljk0LTE0Ljg1LTM1LjgtMzYtMzUuOHptLTM4LjExLTIzLjFMMjA5LjU1IDEuNTgzYy00LjI0LTIuMTEtMTAuNTktMi4xMS0xNi45MyAwTDU3LjE3IDc5LjQxM0EzNiAzNiAwIDAgMCAzNiA3My4xMDNjLTE5IDAtMzYgMTYuODMtMzYgMzUuNzZzMTYuOTMgMzUuNzcgMzYgMzUuNzcgMzYtMTYuODMgMzYtMzUuNzdsMTI5LjEtNzMuNjIgMTEwIDYzLjExem0tMTQzLjg5IDI3Ny42OHEtOS41MyAwLTE5IDYuMzFsLTExMC02My4xMXYtMTI2LjIyaC0zNHYxMzQuNjNjMCA2LjMyIDQuMjMgMTIuNjMgOC40NiAxNC43M2wxMTguNTQgNjUuMjF2Mi4xMWMwIDE4LjkzIDE2LjkzIDM1Ljc2IDM2IDM1Ljc2czM2LTE2LjgzIDM2LTM1Ljc2LTE3LTMzLjY2LTM2LTMzLjY2eiIvPiYjeGE7CTxwYXRoIGNsYXNzPSJzdDEiIGQ9Ik05Ny4zOCAxMzYuMjEzbDEwNS44MiA1OC45MSAxMDMuNy01OC45MS0xMDMuNy02MXptLTYuMzUgNjcuMzJsMTEyLjE3IDYzLjExdi01MC40OWwtMTEyLjE3LTY1LjIxem0wIDYzLjExbDExMi4xNyA2NS4yMXYtNDQuMTdsLTExMi4xNy02NS4yMnoiLz4mI3hhOwk8cGF0aCBjbGFzcz0ic3QwIiBkPSJNMjAzLjE3IDIxNi4xMjN2NTAuNTZsMTEyLjE2LTY1LjI5di01MC4zOXptOTItMjBhOC4xNiA4LjE2IDAgMSAxIDguMTYtOC4xNiA4LjE5IDguMTkgMCAwIDEtOC4xNiA4LjE2em0tOTIgOTEuNTJ2NDQuMTZsMTEyLjE2LTY1LjEydi00NC4xNnptOTItMjIuODhhOC4xNiA4LjE2IDAgMSAxIDguMTYtOC4xNiA4LjE5IDguMTkgMCAwIDEtOC4xNiA4LjE2eiIvPiYjeGE7PC9zdmc+;" parent="pW_zvi2s4AdtfY8qEVKi-114" vertex="1">
          <mxGeometry x="215.14000000000001" y="289" width="54.45" height="57.32" as="geometry" />
        </mxCell>
        <mxCell id="pW_zvi2s4AdtfY8qEVKi-129" value="" style="group;opacity=50;" parent="pW_zvi2s4AdtfY8qEVKi-114" vertex="1" connectable="0">
          <mxGeometry x="-14" y="483" width="195" height="122.84999999999997" as="geometry" />
        </mxCell>
        <mxCell id="pW_zvi2s4AdtfY8qEVKi-130" value="" style="image;aspect=fixed;perimeter=ellipsePerimeter;html=1;align=center;shadow=0;dashed=0;spacingTop=3;image=img/lib/active_directory/internet_cloud.svg;fontStyle=4;opacity=50;" parent="pW_zvi2s4AdtfY8qEVKi-129" vertex="1">
          <mxGeometry width="195" height="122.85" as="geometry" />
        </mxCell>
        <mxCell id="pW_zvi2s4AdtfY8qEVKi-131" value="&lt;div&gt;Other providers &lt;br&gt;&lt;/div&gt;&lt;div&gt;See Roadmap&lt;br&gt;&lt;/div&gt;" style="text;strokeColor=none;align=center;fillColor=none;html=1;verticalAlign=middle;whiteSpace=wrap;rounded=0;opacity=50;fontColor=#999999;" parent="pW_zvi2s4AdtfY8qEVKi-129" vertex="1">
          <mxGeometry x="40.510000000000005" y="46.420000000000016" width="110" height="30" as="geometry" />
        </mxCell>
        <mxCell id="pW_zvi2s4AdtfY8qEVKi-121" value="&lt;font style=&quot;font-size: 14px;&quot; face=&quot;Helvetica&quot; color=&quot;#ffffff&quot;&gt;Registries&lt;/font&gt;" style="image;sketch=0;aspect=fixed;html=1;points=[];align=center;fontSize=12;image=img/lib/mscae/App_Registrations.svg;labelBackgroundColor=none;" parent="1" vertex="1">
          <mxGeometry x="74" y="-1444" width="50" height="50" as="geometry" />
        </mxCell>
        <mxCell id="pW_zvi2s4AdtfY8qEVKi-124" value="" style="group" parent="1" vertex="1" connectable="0">
          <mxGeometry x="426" y="-1186" width="195" height="122.84999999999997" as="geometry" />
        </mxCell>
        <mxCell id="pW_zvi2s4AdtfY8qEVKi-122" value="" style="image;aspect=fixed;perimeter=ellipsePerimeter;html=1;align=center;shadow=0;dashed=0;spacingTop=3;image=img/lib/active_directory/internet_cloud.svg;" parent="pW_zvi2s4AdtfY8qEVKi-124" vertex="1">
          <mxGeometry width="195" height="122.85" as="geometry" />
        </mxCell>
        <mxCell id="pW_zvi2s4AdtfY8qEVKi-123" value="&lt;b&gt;Google Cloud&amp;nbsp; Platform (GKE)&lt;/b&gt;" style="text;strokeColor=none;align=center;fillColor=none;html=1;verticalAlign=middle;whiteSpace=wrap;rounded=0;" parent="pW_zvi2s4AdtfY8qEVKi-124" vertex="1">
          <mxGeometry x="40.510000000000005" y="46.420000000000016" width="110" height="30" as="geometry" />
        </mxCell>
        <mxCell id="pW_zvi2s4AdtfY8qEVKi-132" value="" style="sketch=0;pointerEvents=1;shadow=0;dashed=0;html=1;strokeColor=none;fillColor=#434445;aspect=fixed;labelPosition=center;verticalLabelPosition=bottom;verticalAlign=top;align=center;outlineConnect=0;shape=mxgraph.vvd.service_provider_cloud_environment;opacity=50;" parent="1" vertex="1">
          <mxGeometry x="218" y="-1303" width="50" height="44" as="geometry" />
        </mxCell>
        <mxCell id="pW_zvi2s4AdtfY8qEVKi-133" value="&lt;div&gt;Future Features&lt;/div&gt;&lt;div&gt;See Roadmap&lt;br&gt;&lt;/div&gt;" style="text;whiteSpace=wrap;html=1;fontColor=#999999;" parent="1" vertex="1">
          <mxGeometry x="274.9966666666667" y="-1306.503333333333" width="112" height="51" as="geometry" />
        </mxCell>
        <mxCell id="pW_zvi2s4AdtfY8qEVKi-204" value="" style="group" parent="1" vertex="1" connectable="0">
          <mxGeometry x="1022" y="-1575" width="836" height="494" as="geometry" />
        </mxCell>
        <mxCell id="pW_zvi2s4AdtfY8qEVKi-169" value="" style="whiteSpace=wrap;html=1;rounded=0;shadow=0;dashed=0;strokeWidth=1;fontFamily=Tahoma;fontSize=10;fontColor=#FFFFFF;strokeColor=none;fillColor=#7FB61A;gradientColor=#1B622A;gradientDirection=west;" parent="pW_zvi2s4AdtfY8qEVKi-204" vertex="1">
          <mxGeometry x="680.2433460076046" y="24.2156862745098" width="152.57794676806085" height="108.9705882352941" as="geometry" />
        </mxCell>
        <mxCell id="pW_zvi2s4AdtfY8qEVKi-170" value="" style="verticalLabelPosition=bottom;verticalAlign=top;html=1;strokeWidth=1;shape=mxgraph.basic.orthogonal_triangle;rounded=0;shadow=0;dashed=0;fontFamily=Tahoma;fontSize=10;fontColor=#FFFFFF;flipV=1;fillColor=#000000;strokeColor=none;opacity=50;" parent="pW_zvi2s4AdtfY8qEVKi-204" vertex="1">
          <mxGeometry x="680.2433460076046" y="108.9705882352941" width="89.00380228136882" height="24.2156862745098" as="geometry" />
        </mxCell>
        <mxCell id="pW_zvi2s4AdtfY8qEVKi-171" value="" style="whiteSpace=wrap;html=1;rounded=0;shadow=0;dashed=0;strokeWidth=1;fontFamily=Tahoma;fontSize=10;fontColor=#FFFFFF;strokeColor=none;fillColor=#5398DB;gradientColor=#1247B9;gradientDirection=west;" parent="pW_zvi2s4AdtfY8qEVKi-204" vertex="1">
          <mxGeometry x="683.4220532319392" y="148.32107843137254" width="152.57794676806085" height="108.9705882352941" as="geometry" />
        </mxCell>
        <mxCell id="pW_zvi2s4AdtfY8qEVKi-172" value="" style="verticalLabelPosition=bottom;verticalAlign=top;html=1;strokeWidth=1;shape=mxgraph.basic.orthogonal_triangle;rounded=0;shadow=0;dashed=0;fontFamily=Tahoma;fontSize=10;fontColor=#FFFFFF;flipV=1;fillColor=#000000;strokeColor=none;opacity=50;" parent="pW_zvi2s4AdtfY8qEVKi-204" vertex="1">
          <mxGeometry x="680.2433460076046" y="217.9411764705882" width="89.00380228136882" height="24.2156862745098" as="geometry" />
        </mxCell>
        <mxCell id="pW_zvi2s4AdtfY8qEVKi-173" value="" style="whiteSpace=wrap;html=1;rounded=0;shadow=0;dashed=0;strokeWidth=1;fontFamily=Tahoma;fontSize=10;fontColor=#FFFFFF;strokeColor=none;fillColor=#8D029D;gradientColor=#65009E;gradientDirection=west;" parent="pW_zvi2s4AdtfY8qEVKi-204" vertex="1">
          <mxGeometry x="680.2433460076046" y="266.67524509803917" width="152.57794676806085" height="108.9705882352941" as="geometry" />
        </mxCell>
        <mxCell id="pW_zvi2s4AdtfY8qEVKi-174" value="" style="verticalLabelPosition=bottom;verticalAlign=top;html=1;strokeWidth=1;shape=mxgraph.basic.orthogonal_triangle;rounded=0;shadow=0;dashed=0;fontFamily=Tahoma;fontSize=10;fontColor=#FFFFFF;flipV=1;fillColor=#000000;strokeColor=none;opacity=50;" parent="pW_zvi2s4AdtfY8qEVKi-204" vertex="1">
          <mxGeometry x="680.2433460076046" y="351.43014705882354" width="89.00380228136882" height="24.2156862745098" as="geometry" />
        </mxCell>
        <mxCell id="pW_zvi2s4AdtfY8qEVKi-177" value="" style="whiteSpace=wrap;html=1;rounded=0;shadow=0;dashed=0;strokeWidth=1;fontFamily=Tahoma;fontSize=10;fontColor=#FFFFFF;strokeColor=none;fillColor=#EA0001;gradientColor=#AD0002;gradientDirection=west;" parent="pW_zvi2s4AdtfY8qEVKi-204" vertex="1">
          <mxGeometry x="680.2433460076046" y="385.02941176470586" width="152.57794676806085" height="108.9705882352941" as="geometry" />
        </mxCell>
        <mxCell id="pW_zvi2s4AdtfY8qEVKi-178" value="" style="verticalLabelPosition=bottom;verticalAlign=top;html=1;strokeWidth=1;shape=mxgraph.basic.orthogonal_triangle;rounded=0;shadow=0;dashed=0;fontFamily=Tahoma;fontSize=10;fontColor=#FFFFFF;flipV=1;fillColor=#000000;strokeColor=none;opacity=50;" parent="pW_zvi2s4AdtfY8qEVKi-204" vertex="1">
          <mxGeometry x="680.2433460076046" y="469.78431372549016" width="89.00380228136882" height="24.2156862745098" as="geometry" />
        </mxCell>
        <mxCell id="pW_zvi2s4AdtfY8qEVKi-179" value="" style="html=1;shadow=0;dashed=0;align=center;verticalAlign=middle;shape=mxgraph.arrows2.arrow;dy=0;dx=0;notch=30;rounded=0;strokeColor=none;strokeWidth=1;fillColor=#7FB61A;fontFamily=Tahoma;fontSize=10;fontColor=#FFFFFF;gradientColor=#1B622A;gradientDirection=east;" parent="pW_zvi2s4AdtfY8qEVKi-204" vertex="1">
          <mxGeometry width="769.2471482889734" height="108.9705882352941" as="geometry" />
        </mxCell>
        <mxCell id="pW_zvi2s4AdtfY8qEVKi-180" value="" style="html=1;shadow=0;dashed=0;align=center;verticalAlign=middle;shape=mxgraph.arrows2.arrow;dy=0;dx=0;notch=30;rounded=0;strokeColor=none;strokeWidth=1;fillColor=#5398DB;fontFamily=Tahoma;fontSize=10;fontColor=#FFFFFF;gradientColor=#1247B9;gradientDirection=east;fontStyle=4" parent="pW_zvi2s4AdtfY8qEVKi-204" vertex="1">
          <mxGeometry x="3.178707224334601" y="124.10539215686275" width="769.2471482889734" height="108.9705882352941" as="geometry" />
        </mxCell>
        <mxCell id="pW_zvi2s4AdtfY8qEVKi-181" value="" style="html=1;shadow=0;dashed=0;align=center;verticalAlign=middle;shape=mxgraph.arrows2.arrow;dy=0;dx=0;notch=30;rounded=0;strokeColor=none;strokeWidth=1;fillColor=#8D029D;fontFamily=Tahoma;fontSize=10;fontColor=#FFFFFF;gradientColor=#65009E;gradientDirection=east;" parent="pW_zvi2s4AdtfY8qEVKi-204" vertex="1">
          <mxGeometry y="242.4595588235294" width="769.2471482889734" height="108.9705882352941" as="geometry" />
        </mxCell>
        <mxCell id="pW_zvi2s4AdtfY8qEVKi-183" value="" style="html=1;shadow=0;dashed=0;align=center;verticalAlign=middle;shape=mxgraph.arrows2.arrow;dy=0;dx=0;notch=30;rounded=0;strokeColor=none;strokeWidth=1;fillColor=#EA0001;fontFamily=Tahoma;fontSize=10;fontColor=#FFFFFF;gradientColor=#AD0002;gradientDirection=east;" parent="pW_zvi2s4AdtfY8qEVKi-204" vertex="1">
          <mxGeometry y="360.8137254901961" width="769.2471482889734" height="108.9705882352941" as="geometry" />
        </mxCell>
        <mxCell id="pW_zvi2s4AdtfY8qEVKi-184" value="&lt;div style=&quot;font-size: 22px;&quot; align=&quot;center&quot;&gt;&lt;font style=&quot;font-size: 22px;&quot;&gt;Continuous Integration&lt;br&gt;&lt;/font&gt;&lt;/div&gt;" style="text;html=1;strokeColor=none;fillColor=none;align=center;verticalAlign=middle;whiteSpace=wrap;rounded=0;shadow=0;dashed=0;fontFamily=Helvetica;fontSize=150;fontColor=#FFFFFF;" parent="pW_zvi2s4AdtfY8qEVKi-204" vertex="1">
          <mxGeometry x="27.33688212927757" y="123.49999999999999" width="127.14828897338403" height="108.9705882352941" as="geometry" />
        </mxCell>
        <mxCell id="pW_zvi2s4AdtfY8qEVKi-185" value="" style="line;strokeWidth=4;direction=south;html=1;rounded=0;shadow=0;dashed=0;fillColor=none;gradientColor=#AD0002;fontFamily=Helvetica;fontSize=150;fontColor=#FFFFFF;align=right;strokeColor=#FFFFFF;" parent="pW_zvi2s4AdtfY8qEVKi-204" vertex="1">
          <mxGeometry x="155.75665399239543" y="130.1593137254902" width="6.357414448669202" height="96.8627450980392" as="geometry" />
        </mxCell>
        <mxCell id="pW_zvi2s4AdtfY8qEVKi-186" value="" style="line;strokeWidth=4;direction=south;html=1;rounded=0;shadow=0;dashed=0;fillColor=none;gradientColor=#AD0002;fontFamily=Helvetica;fontSize=150;fontColor=#FFFFFF;align=right;strokeColor=#FFFFFF;" parent="pW_zvi2s4AdtfY8qEVKi-204" vertex="1">
          <mxGeometry x="155.75794676806086" y="248.51348039215685" width="6.357414448669202" height="96.8627450980392" as="geometry" />
        </mxCell>
        <mxCell id="pW_zvi2s4AdtfY8qEVKi-188" value="&lt;font style=&quot;font-size: 18px;&quot;&gt;Bring together stakeholders across security, change management, engineering and operations to agree pipeline shapes for &lt;b&gt;Continuous Delivery&lt;/b&gt; &lt;/font&gt;" style="text;html=1;strokeColor=none;fillColor=none;spacing=5;spacingTop=-20;whiteSpace=wrap;overflow=hidden;rounded=0;shadow=0;dashed=0;fontFamily=Helvetica;fontSize=12;fontColor=#FFFFFF;align=left;" parent="pW_zvi2s4AdtfY8qEVKi-204" vertex="1">
          <mxGeometry x="179.00019011406843" y="27.999607843137255" width="425.94676806083646" height="84.75490196078431" as="geometry" />
        </mxCell>
        <mxCell id="pW_zvi2s4AdtfY8qEVKi-189" value="&lt;font style=&quot;font-size: 18px;&quot;&gt;Immutable versioned artifacts that go through deployed functional testing, non-functional testing and integration testing to be ready for CD&lt;b&gt;.&lt;/b&gt;&lt;/font&gt;" style="text;html=1;strokeColor=none;fillColor=none;spacing=5;spacingTop=-20;whiteSpace=wrap;overflow=hidden;rounded=0;shadow=0;dashed=0;fontFamily=Helvetica;fontSize=12;fontColor=#FFFFFF;align=left;" parent="pW_zvi2s4AdtfY8qEVKi-204" vertex="1">
          <mxGeometry x="181.18631178707224" y="154.375" width="425.94676806083646" height="84.75490196078431" as="geometry" />
        </mxCell>
        <mxCell id="pW_zvi2s4AdtfY8qEVKi-190" value="" style="shadow=0;dashed=0;html=1;strokeColor=none;fillColor=#FFFFFF;labelPosition=center;verticalLabelPosition=bottom;verticalAlign=top;shape=mxgraph.office.users.users;rounded=0;fontFamily=Helvetica;fontSize=12;fontColor=#FFFFFF;align=left;" parent="pW_zvi2s4AdtfY8qEVKi-204" vertex="1">
          <mxGeometry x="677.06463878327" y="24.2156862745098" width="73.11026615969583" height="60.53921568627451" as="geometry" />
        </mxCell>
        <mxCell id="pW_zvi2s4AdtfY8qEVKi-191" value="" style="shadow=0;dashed=0;html=1;strokeColor=none;fillColor=#FFFFFF;labelPosition=center;verticalLabelPosition=bottom;verticalAlign=top;shape=mxgraph.office.concepts.best_practices;rounded=0;fontFamily=Helvetica;fontSize=12;fontColor=#FFFFFF;align=left;" parent="pW_zvi2s4AdtfY8qEVKi-204" vertex="1">
          <mxGeometry x="673.8859315589355" y="148.32107843137254" width="61.66692015209125" height="58.72303921568627" as="geometry" />
        </mxCell>
        <mxCell id="pW_zvi2s4AdtfY8qEVKi-193" value="&lt;div style=&quot;font-size: 22px;&quot; align=&quot;center&quot;&gt;&lt;font style=&quot;font-size: 22px;&quot;&gt;Continuous Deployment&lt;/font&gt;&lt;/div&gt;" style="text;html=1;strokeColor=none;fillColor=none;align=center;verticalAlign=middle;whiteSpace=wrap;rounded=0;shadow=0;dashed=0;fontFamily=Helvetica;fontSize=150;fontColor=#FFFFFF;" parent="pW_zvi2s4AdtfY8qEVKi-204" vertex="1">
          <mxGeometry x="27.158174904942964" y="239.12990196078425" width="127.14828897338403" height="108.9705882352941" as="geometry" />
        </mxCell>
        <mxCell id="pW_zvi2s4AdtfY8qEVKi-195" value="" style="shape=image;html=1;verticalAlign=top;verticalLabelPosition=bottom;labelBackgroundColor=#ffffff;imageAspect=0;aspect=fixed;image=https://cdn4.iconfinder.com/data/icons/ionicons/512/icon-social-github-128.png" parent="pW_zvi2s4AdtfY8qEVKi-204" vertex="1">
          <mxGeometry x="41.95893536121673" y="375.04044117647055" width="77.49019607843137" height="77.49019607843137" as="geometry" />
        </mxCell>
        <mxCell id="pW_zvi2s4AdtfY8qEVKi-196" value="" style="line;strokeWidth=4;direction=south;html=1;rounded=0;shadow=0;dashed=0;fillColor=none;gradientColor=#AD0002;fontFamily=Helvetica;fontSize=150;fontColor=#FFFFFF;align=right;strokeColor=#FFFFFF;" parent="pW_zvi2s4AdtfY8qEVKi-204" vertex="1">
          <mxGeometry x="155.75646387832697" y="366.86843137254897" width="6.357414448669202" height="96.8627450980392" as="geometry" />
        </mxCell>
        <mxCell id="pW_zvi2s4AdtfY8qEVKi-197" value="&lt;div style=&quot;font-size: 35px;&quot;&gt;&lt;font style=&quot;font-size: 35px;&quot;&gt;GitHub and GitHub Actions&lt;/font&gt;&lt;/div&gt;" style="text;html=1;strokeColor=none;fillColor=none;spacing=5;spacingTop=-20;whiteSpace=wrap;overflow=hidden;rounded=0;shadow=0;dashed=0;fontFamily=Helvetica;fontSize=12;fontColor=#FFFFFF;align=left;" parent="pW_zvi2s4AdtfY8qEVKi-204" vertex="1">
          <mxGeometry x="181.19" y="397.14" width="463.71" height="84.75" as="geometry" />
        </mxCell>
        <mxCell id="pW_zvi2s4AdtfY8qEVKi-198" value="" style="line;strokeWidth=4;direction=south;html=1;rounded=0;shadow=0;dashed=0;fillColor=none;gradientColor=#AD0002;fontFamily=Helvetica;fontSize=150;fontColor=#FFFFFF;align=right;strokeColor=#FFFFFF;" parent="pW_zvi2s4AdtfY8qEVKi-204" vertex="1">
          <mxGeometry x="155.75942965779467" y="6.659313725490196" width="6.357414448669202" height="96.8627450980392" as="geometry" />
        </mxCell>
        <mxCell id="pW_zvi2s4AdtfY8qEVKi-199" value="&lt;div style=&quot;font-size: 22px;&quot; align=&quot;center&quot;&gt;&lt;font style=&quot;font-size: 22px;&quot;&gt;&amp;nbsp;Stakeholder Engagement&lt;br&gt;&lt;/font&gt;&lt;/div&gt;" style="text;html=1;strokeColor=none;fillColor=none;align=center;verticalAlign=middle;whiteSpace=wrap;rounded=0;shadow=0;dashed=0;fontFamily=Helvetica;fontSize=150;fontColor=#FFFFFF;" parent="pW_zvi2s4AdtfY8qEVKi-204" vertex="1">
          <mxGeometry x="26.979467680608366" y="0.6053921568627451" width="127.14828897338403" height="108.9705882352941" as="geometry" />
        </mxCell>
        <mxCell id="pW_zvi2s4AdtfY8qEVKi-200" value="" style="verticalLabelPosition=bottom;html=1;verticalAlign=top;align=center;strokeColor=none;fillColor=#FFFFFF;shape=mxgraph.azure.website_generic;pointerEvents=1;" parent="pW_zvi2s4AdtfY8qEVKi-204" vertex="1">
          <mxGeometry x="680.2433460076046" y="391.0833333333333" width="63.57414448669201" height="54.48529411764705" as="geometry" />
        </mxCell>
        <mxCell id="pW_zvi2s4AdtfY8qEVKi-201" value="" style="image;aspect=fixed;html=1;points=[];align=center;fontSize=12;image=img/lib/azure2/other/Azure_Deployment_Environments.svg;" parent="pW_zvi2s4AdtfY8qEVKi-204" vertex="1">
          <mxGeometry x="677.2235741444867" y="268.40666666666664" width="52.51776960784314" height="50.41705882352941" as="geometry" />
        </mxCell>
        <mxCell id="pW_zvi2s4AdtfY8qEVKi-203" value="&lt;font style=&quot;font-size: 18px;&quot;&gt;Promote immutable versioned artifacts through a set of long lived environments to production.&lt;br&gt;&lt;/font&gt;" style="text;html=1;strokeColor=none;fillColor=none;spacing=5;spacingTop=-20;whiteSpace=wrap;overflow=hidden;rounded=0;shadow=0;dashed=0;fontFamily=Helvetica;fontSize=12;fontColor=#FFFFFF;align=left;" parent="pW_zvi2s4AdtfY8qEVKi-204" vertex="1">
          <mxGeometry x="181.19019011406843" y="271.2156862745098" width="425.94676806083646" height="84.75490196078431" as="geometry" />
        </mxCell>
        <mxCell id="pW_zvi2s4AdtfY8qEVKi-213" value="&lt;font color=&quot;#0069c1&quot;&gt;Text&lt;/font&gt;" style="text;strokeColor=none;align=center;fillColor=none;html=1;verticalAlign=middle;whiteSpace=wrap;rounded=0;" parent="1" vertex="1">
          <mxGeometry x="1424" y="-1370" width="60" height="30" as="geometry" />
        </mxCell>
        <mxCell id="pW_zvi2s4AdtfY8qEVKi-214" value="&lt;font style=&quot;font-size: 22px;&quot;&gt;&lt;b&gt;&lt;font style=&quot;font-size: 22px;&quot; color=&quot;#0069c1&quot;&gt;Path to production&lt;/font&gt;&lt;/b&gt;&lt;/font&gt;" style="text;strokeColor=none;align=center;fillColor=none;html=1;verticalAlign=middle;whiteSpace=wrap;rounded=0;" parent="1" vertex="1">
          <mxGeometry x="1049" y="-1618" width="462" height="30" as="geometry" />
        </mxCell>
      </root>
    </mxGraphModel>
  </diagram>
</mxfile>
